<?xml version="1.0" standalone="no"?>
<!DOCTYPE svg PUBLIC "-//W3C//DTD SVG 20010904//EN"
 "http://www.w3.org/TR/2001/REC-SVG-20010904/DTD/svg10.dtd">
<svg version="1.0" xmlns="http://www.w3.org/2000/svg"
 width="567.000000pt" height="236.000000pt" viewBox="0 0 567.000000 236.000000"
 preserveAspectRatio="xMidYMid meet">

<g transform="translate(0.000000,236.000000) scale(0.100000,-0.100000)"
fill="white" stroke="none">
<path d="M460 1375 l0 -395 70 0 70 0 0 170 0 170 190 0 190 0 0 -170 0 -171
68 3 67 3 0 390 0 390 -67 3 -68 3 -2 -163 -3 -163 -187 -3 -188 -2 0 165 0
165 -70 0 -70 0 0 -395z"/>
<path d="M2474 1279 c-85 -171 -153 -318 -150 -325 4 -12 81 -14 451 -14 439
0 445 0 445 20 0 11 -52 124 -115 251 -139 277 -134 274 -209 130 l-48 -94
-90 172 c-69 131 -94 171 -109 171 -15 0 -51 -64 -175 -311z m229 115 c27 -53
47 -98 45 -99 -2 -2 -15 -5 -30 -7 -19 -2 -35 5 -56 25 -25 24 -32 26 -56 17
-15 -5 -31 -10 -37 -10 -5 0 10 38 33 85 23 47 45 85 48 85 3 0 27 -43 53 -96z
m296 -113 c29 -57 30 -59 12 -75 -18 -16 -20 -16 -43 7 -13 13 -30 26 -37 28
-10 4 -7 16 10 52 13 26 24 47 26 47 1 0 16 -26 32 -59z"/>
<path d="M1394 1530 c-98 -18 -104 -23 -104 -83 l0 -53 79 19 c104 26 182 18
223 -23 16 -17 28 -39 28 -54 0 -31 3 -30 -50 -11 -25 9 -77 15 -125 15 -101
0 -158 -25 -192 -86 -32 -55 -32 -148 0 -195 50 -74 171 -107 279 -75 30 9 61
23 68 31 18 22 30 18 30 -10 0 -24 2 -25 65 -25 l65 0 0 188 c0 103 -5 204
-11 225 -13 48 -75 109 -126 126 -52 16 -167 22 -229 11z m184 -310 c38 -17
42 -23 42 -54 0 -25 -7 -40 -26 -55 -57 -45 -165 -50 -205 -10 -22 22 -25 77
-6 101 33 42 123 51 195 18z"/>
<path d="M3555 1527 c-95 -25 -155 -69 -191 -139 -75 -148 -16 -324 129 -389
43 -20 68 -24 152 -24 120 0 182 23 243 89 50 54 67 103 66 192 0 60 -5 82
-30 130 -32 64 -93 114 -162 134 -61 17 -154 20 -207 7z m146 -108 c45 -16 86
-55 100 -97 16 -48 7 -137 -17 -169 -40 -53 -71 -68 -139 -68 -71 0 -103 17
-142 75 -27 39 -32 134 -9 178 40 76 123 109 207 81z"/>
<path d="M4335 1533 c-56 -12 -90 -28 -121 -55 l-34 -30 0 36 0 36 -70 0 -70
0 2 -267 3 -268 68 -3 67 -3 0 179 0 178 38 36 c47 46 114 66 165 48 60 -19
62 -24 67 -239 l5 -196 68 -3 67 -3 0 203 c0 220 -8 256 -61 305 -45 41 -129
61 -194 46z"/>
<path d="M1852 1253 l3 -268 68 -3 67 -3 0 165 0 165 31 35 c32 37 107 66 168
66 31 0 31 0 31 56 l0 57 -56 -7 c-65 -7 -120 -29 -151 -58 l-23 -21 0 41 0
42 -70 0 -70 0 2 -267z"/>
<path d="M4714 1488 c7 -18 59 -133 115 -256 l101 -224 -21 -49 c-28 -64 -50
-79 -116 -79 l-53 0 0 -49 c0 -59 10 -65 106 -63 77 1 134 28 173 82 24 33
105 227 262 623 l19 48 -71 -3 -72 -3 -73 -185 c-40 -102 -75 -185 -79 -185
-3 0 -41 83 -84 185 l-78 185 -72 3 -72 3 15 -33z"/>
<path d="M2480 490 c0 -91 3 -110 15 -110 11 0 15 12 15 50 l0 50 50 0 50 0 0
-50 c0 -38 4 -50 15 -50 13 0 15 16 13 107 -2 74 -7 108 -15 111 -9 2 -13 -10
-13 -42 l0 -46 -50 0 -50 0 0 45 c0 33 -4 45 -15 45 -12 0 -15 -19 -15 -110z"/>
<path d="M2728 585 c-81 -45 -47 -205 44 -205 46 0 75 23 88 69 28 104 -47
181 -132 136z m71 -15 c46 -24 51 -125 8 -155 -31 -22 -53 -19 -77 13 -29 35
-23 107 10 134 25 21 34 22 59 8z"/>
<path d="M2910 490 c0 -91 3 -110 15 -110 12 0 15 16 16 83 l0 82 27 -72 c15
-40 30 -73 34 -73 3 0 16 26 27 58 38 103 40 103 40 10 1 -52 5 -88 11 -88 6
0 10 43 10 110 0 139 -15 146 -58 28 l-29 -81 -18 49 c-37 100 -44 114 -59
114 -14 0 -16 -17 -16 -110z"/>
<path d="M3150 490 l0 -110 66 0 c48 0 65 3 62 13 -3 6 -25 13 -51 15 -46 3
-47 4 -47 38 0 33 1 34 40 34 29 0 40 4 40 15 0 11 -11 15 -40 15 -38 0 -40 2
-40 29 0 28 2 30 48 33 68 4 58 22 -15 26 l-63 3 0 -111z"/>
<path d="M600 490 c0 -7 307 -10 900 -10 593 0 900 3 900 10 0 7 -307 10 -900
10 -593 0 -900 -3 -900 -10z"/>
<path d="M3360 490 c0 -7 307 -10 900 -10 593 0 900 3 900 10 0 7 -307 10
-900 10 -593 0 -900 -3 -900 -10z"/>
</g>
</svg>
